PathFileType	4	(X/Y/Z)	c:/Users/goper/Files/vsCode/490R/osim_files/A03/A03_SSWS_05.trc
DataRate	CameraRate	NumFrames	NumMarkers	Units                	OrigDataRate	OrigDataStartFrame	OrigNumFrames
250.00	250.00	6	36	mm	250.0	1534	3066
                Frame#	Time	LPSIS			LASIS			LTH1			LTH2			LTH3			LTH4			LLFE			LMFE			LSH1			LSH2			LSH3			LSH4			LLMAL			LMMAL			LCAL			LMTP5			LTOE			LMTP1			RPSIS			RASIS			RTH1			RTH2			RTH3			RTH4			RLFE			RMFE			RSH1			RSH2			RSH3			RSH4			RLMAL			RMMAL			RCAL			RMTP1			RTOE			RMTP5		
		X1	Y1	Z1	X2	Y2	Z2	X3	Y3	Z3	X4	Y4	Z4	X5	Y5	Z5	X6	Y6	Z6	X7	Y7	Z7	X8	Y8	Z8	X9	Y9	Z9	X10	Y10	Z10	X11	Y11	Z11	X12	Y12	Z12	X13	Y13	Z13	X14	Y14	Z14	X15	Y15	Z15	X16	Y16	Z16	X17	Y17	Z17	X18	Y18	Z18	X19	Y19	Z19	X20	Y20	Z20	X21	Y21	Z21	X22	Y22	Z22	X23	Y23	Z23	X24	Y24	Z24	X25	Y25	Z25	X26	Y26	Z26	X27	Y27	Z27	X28	Y28	Z28	X29	Y29	Z29	X30	Y30	Z30	X31	Y31	Z31	X32	Y32	Z32	X33	Y33	Z33	X34	Y34	Z34	X35	Y35	Z35	X36	Y36	Z36

1534	6.13200	-1304.59827	1063.77039	258.94922	-1544.04712	971.71210	371.64978	-1618.48376	641.33032	409.49689	-1644.25647	607.77557	400.29849	-1666.57800	673.73560	385.31714	-1683.19958	633.29712	377.81473	-1639.28259	558.86047	385.63126	-1670.35596	565.37872	231.38666	-1643.24744	462.41025	384.36313	-1667.05981	420.83099	384.44714	-1700.68420	486.45718	382.32309	-1714.58337	440.95490	379.04080	-1821.98181	133.92506	359.59332	-1834.93579	142.40869	261.39981	-1771.79333	86.12578	303.56448	-1981.46143	151.97386	378.86624	-1996.28552	191.76826	310.68912	-1981.77332	159.24580	264.33514	-1303.06360	1076.51465	175.80515	-1533.27356	963.49176	72.61278	-1389.77637	608.43982	47.35884	-1388.19971	564.51874	57.20105	-1450.41089	600.18805	52.66776	-1441.49487	557.93762	62.04319	-1402.76111	526.64545	74.21090	-1445.16260	528.19135	192.03714	-1334.07227	472.49518	77.55110	-1320.64331	433.14102	67.60291	-1391.27747	448.54419	71.46346	-1368.72205	408.29526	63.61193	-1249.28320	124.82032	122.94411	-1284.34277	120.67785	210.35979	-1192.13770	88.12314	183.42805	-1400.64392	51.50243	225.44577	-1428.35962	74.49570	175.43463	-1398.56384	42.26147	105.62024
1535	6.13600	-1309.33655	1062.94995	259.20486	-1549.04724	970.95691	371.77069	-1623.13635	640.36047	408.82608	-1648.80884	606.76996	399.60489	-1670.60022	672.14447	384.54654	-1687.64685	632.27673	377.01114	-1643.84265	558.00989	384.97769	-1673.12463	562.49695	231.58047	-1648.12231	461.54828	383.97491	-1672.08118	420.10239	384.05453	-1705.43848	485.83548	381.62311	-1719.62830	440.65146	377.14929	-1828.23462	133.77209	359.18869	-1840.83374	141.94615	261.15964	-1777.84412	85.57107	303.59155	-1987.68555	152.60722	377.60883	-2001.92981	192.22089	309.23514	-1987.28247	159.52325	262.99658	-1307.72986	1075.65881	176.08025	-1537.72986	962.54974	72.60126	-1392.84753	607.93530	47.20442	-1391.00830	564.03552	57.07457	-1453.40991	599.38074	52.45311	-1444.29272	557.13745	61.85889	-1405.41431	526.04663	74.07690	-1447.95410	527.39813	191.84993	-1336.42932	472.28333	77.46680	-1322.75427	433.03152	67.53087	-1393.44666	447.97577	71.26940	-1371.42664	407.70493	63.37286	-1249.55493	125.03844	122.79742	-1284.60876	120.90858	210.20821	-1192.20947	88.36621	183.21338	-1400.63721	51.44735	225.43840	-1428.37463	74.39774	175.38599	-1398.55505	42.20900	105.54840
1536	6.14000	-1314.14563	1062.07666	259.40826	-1554.00964	970.19287	371.83939	-1627.86841	639.47144	408.17224	-1653.44653	605.86737	398.93298	-1675.23523	671.17584	383.66580	-1692.28735	631.26550	376.09579	-1648.51147	557.14606	384.32272	-1676.92468	561.27679	230.85582	-1652.99805	460.67072	383.58102	-1677.03174	419.29465	383.68903	-1710.26013	485.10358	380.95261	-1724.47510	439.97018	376.45804	-1833.85596	133.29692	358.80280	-1845.95288	141.32196	260.68234	-1783.30273	84.85590	303.60556	-1993.38916	152.67102	376.33377	-2006.81470	192.13412	307.73929	-1992.34180	159.32117	261.72562	-1312.41699	1074.79700	176.30006	-1542.26404	961.60004	72.57549	-1395.81873	607.43335	47.06467	-1393.81580	563.54718	56.95798	-1456.38098	598.58594	52.23183	-1447.09668	556.38434	61.72356	-1408.03247	525.47278	73.93015	-1450.75024	526.54498	191.54694	-1338.80249	472.09714	77.42954	-1324.84595	432.93750	67.48134	-1395.87756	447.47232	71.23093	-1373.34692	407.32593	63.22141	-1249.86365	125.26249	122.67430	-1285.06531	121.15594	210.11502	-1192.26892	88.60317	182.99155	-1400.64502	51.37988	225.41907	-1428.41284	74.29433	175.36780	-1398.54333	42.10406	105.55410
1537	6.14400	-1319.66003	1061.03735	259.41895	-1559.04712	969.54761	371.93704	-1632.66345	638.55402	407.48904	-1658.27490	604.93988	398.26349	-1680.00354	670.18848	382.81070	-1697.05481	630.29950	375.26678	-1653.26965	556.28064	383.73325	-1680.43066	559.49243	230.49411	-1657.76990	459.79120	383.22537	-1681.88770	418.40292	383.34183	-1715.00317	484.30225	380.35440	-1729.29272	439.13208	375.87027	-1838.93115	132.56648	358.41943	-1850.49573	140.31053	260.18619	-1788.20190	83.84517	303.60632	-1998.49902	152.14977	375.12485	-2012.70630	191.49524	306.57190	-1997.05872	158.43666	260.55246	-1317.20764	1073.93201	176.46625	-1546.79236	960.64764	72.60986	-1398.83862	606.89893	47.01282	-1396.70349	563.05383	56.91092	-1459.39490	597.81976	52.16650	-1449.85059	555.66248	61.58577	-1410.63318	524.89911	73.79312	-1453.56006	525.79944	191.41391	-1341.13855	471.91370	77.45933	-1326.95251	432.87628	67.48141	-1398.24048	447.00769	71.11620	-1373.77747	406.98907	62.84281	-1250.15955	125.54526	122.55087	-1285.18665	121.32684	209.98248	-1192.36841	88.86913	182.82237	-1400.68811	51.31160	225.44963	-1428.43457	74.18999	175.37207	-1398.55261	42.07124	105.55740
1538	6.14800	-1323.86877	1060.33313	259.63303	-1564.17822	968.87817	372.02350	-1637.60437	637.70856	406.83014	-1663.15332	604.04755	397.56186	-1684.90796	669.25745	381.95105	-1701.88562	629.34656	374.42459	-1658.04626	555.37445	383.20920	-1684.50415	558.38422	229.75854	-1662.54700	458.85175	382.91476	-1686.56311	417.50897	383.00162	-1719.72253	483.33658	379.78653	-1734.00720	438.21527	375.26935	-1843.38843	131.50099	357.95816	-1854.59265	138.92474	260.04227	-1792.37866	82.71194	303.51938	-2003.01672	151.07281	373.92230	-2016.07764	190.19420	304.99075	-2001.04834	157.16235	259.31049	-1322.07361	1073.05249	176.61610	-1551.39160	959.69421	72.63701	-1401.85229	606.47284	46.95382	-1399.42468	562.62878	56.84801	-1462.34790	597.04828	52.02054	-1452.64832	554.92657	61.48986	-1413.23804	524.36426	73.63726	-1456.28113	525.02478	191.31163	-1343.51660	471.76480	77.49164	-1329.01990	432.81445	67.49773	-1400.60986	446.56549	71.02367	-1377.16443	406.68826	62.94346	-1250.59143	125.88179	122.48783	-1285.48718	121.60769	209.87109	-1192.47229	89.11129	182.60420	-1400.70593	51.21292	225.48022	-1428.46777	74.07344	175.37602	-1398.54443	42.03471	105.47449
1539	6.15200	-1328.77380	1059.45447	259.71744	-1569.22644	968.21814	372.01398	-1642.60217	636.87610	406.19553	-1668.12537	603.19806	396.92282	-1689.87256	668.35687	381.08002	-1706.73694	628.35669	373.52594	-1662.92114	554.45648	382.73880	-1688.72290	557.24573	229.07724	-1667.20056	457.92215	382.61334	-1691.16382	416.53033	382.66983	-1724.40466	482.33069	379.23926	-1738.54822	437.08401	374.68036	-1847.26770	130.17039	357.47232	-1858.07922	137.35370	259.52725	-1795.92639	81.36436	303.40079	-2006.97021	149.42624	372.67902	-2019.83313	188.35068	303.68057	-2004.75623	155.25221	258.20004	-1326.90942	1072.19678	176.75180	-1556.03918	958.75049	72.61457	-1404.84363	606.02332	46.94944	-1402.29443	562.20282	56.80260	-1465.27637	596.25470	51.88516	-1455.38660	554.22632	61.34594	-1415.82629	523.83881	73.59453	-1459.02173	524.38458	191.18590	-1345.86536	471.63495	77.55073	-1331.07471	432.80838	67.50554	-1402.99072	446.10623	70.96930	-1378.21021	406.57907	62.64272	-1250.78210	126.15005	122.40369	-1285.79126	121.84851	209.71870	-1192.53906	89.39666	182.37164	-1400.71509	51.13799	225.51993	-1428.50354	73.92858	175.37692	-1398.54761	41.95766	105.46162
